<?xml version="1.0" encoding="UTF-8"?>
<svg id="Layer_1" data-name="Layer 1" xmlns="http://www.w3.org/2000/svg" xmlns:xlink="http://www.w3.org/1999/xlink" viewBox="0 0 604.64 482.98">
  <defs>
    <style>
      .cls-1 {
        fill: url(#linear-gradient);
        opacity: .4;
      }

      .cls-2 {
        fill: #42b07a;
      }

      .cls-3 {
        fill: #263370;
      }

      .cls-4 {
        fill: #f2f2f2;
      }

      .cls-5 {
        fill: #0f7fad;
      }
    </style>
    <linearGradient id="linear-gradient" x1="230.64" y1="554.16" x2="507.34" y2="185.67" gradientUnits="userSpaceOnUse">
      <stop offset="0" stop-color="#f2f2f2"/>
      <stop offset="1" stop-color="#fff"/>
    </linearGradient>
  </defs>
  <rect class="cls-4" width="604.64" height="482.98"/>
  <path class="cls-1" d="M604.64,482.98H0l126.16-211.35C226.72,103.17,408.45,0,604.64,0h0v482.98Z"/>
  <g>
    <g>
      <path class="cls-3" d="M291.34,255.27c-16.68,0-30.27-13.59-30.27-30.27s13.59-30.27,30.27-30.27,30.27,13.59,30.27,30.27-13.59,30.27-30.27,30.27ZM291.34,210.53c-8.03,0-14.47,6.53-14.47,14.47s6.53,14.47,14.47,14.47,14.47-6.53,14.47-14.47-6.53-14.47-14.47-14.47Z"/>
      <path class="cls-5" d="M410.21,177.34h0c4.32,0,7.94,3.53,7.94,7.94v62.13c0,4.32-3.53,7.85-7.94,7.85h0c-4.32,0-7.94-3.53-7.94-7.85v-62.21c0-4.32,3.53-7.85,7.94-7.85Z"/>
      <path class="cls-3" d="M363.17,255.27h0c-16.15,0-30-13.15-30-29.3,0-23.03-18.18-42.18-40.59-42.8-11.38-.35-22.15,3.88-30.36,11.83-6.53,6.35-10.77,14.56-12.18,23.39-.62,3.79-3.97,6.53-7.77,6.53h0c-4.85,0-8.56-4.32-7.85-9.09,1.94-12.18,7.68-23.39,16.68-32.21,11.21-10.94,26.12-16.77,41.74-16.33,30.8.88,55.86,27,55.95,58.42,0,7.5,6,13.68,13.5,13.68h0c5.29,0,9.53-4.24,9.53-9.53v-27.45c0-4.32,3.53-7.94,7.94-7.94h0c4.32,0,7.94,3.53,7.94,7.94v28.15c0,13.59-11.03,24.62-24.62,24.62h0l.09.09Z"/>
      <path class="cls-3" d="M184.2,271.06c-15.27.26-27.71-12.71-27.71-27.97v-32.65c0-4.32,3.53-7.94,7.85-7.94h0c4.32,0,7.85,3.53,7.85,7.94v33c0,5.82,4.15,11.03,9.97,11.74,6.97.88,12.97-4.59,12.97-11.38v-41.3h15.8v41.3c0,14.83-12,27-26.83,27.27h.09Z"/>
      <path class="cls-2" d="M440.47,167.37h0c4.32,0,7.94,3.53,7.94,7.85v72.1c0,4.32-3.53,7.85-7.94,7.85h0c-4.32,0-7.94-3.53-7.94-7.85v-72.1c0-4.32,3.53-7.85,7.94-7.94v.09Z"/>
      <path class="cls-3" d="M291.34,255.27h-62.74c-18.44,0-33.45-15-33.45-33.45v-46.59c0-4.32,3.53-7.85,7.94-7.85h0c4.32,0,7.94,3.53,7.94,7.85v46.59c0,9.8,7.94,17.65,17.65,17.65h62.74v15.8h-.09Z"/>
    </g>
    <g>
      <path class="cls-3" d="M176.17,307.86c-2.47,0-4.32-.71-5.65-2.12l-.18-.18c-.62.62-1.5,1.24-2.65,1.68-.97.35-2.03.62-3.18.62s-.35,0-.62,0c-1.32,0-2.56-.44-3.62-1.15-2.65-1.59-4.06-4.06-4.06-7.68s.71-4.85,2.21-6.44c1.68-1.68,3.88-2.56,6.8-2.56h0c1.59,0,3.09.26,4.32.88,1.85.79,2.82,1.94,2.82,3.53v6.53c0,1.24.35,2.29.97,3,.62.62,1.5.88,2.65.88v3.09h0l.18-.09ZM168.67,294.36c0-.35-.26-.62-.79-.88-.71-.35-1.59-.44-2.47-.44h0c-1.59,0-2.82.44-3.62,1.41-.97,1.06-1.5,2.56-1.5,4.59s.79,4.24,2.47,5.21c.53.26,1.06.44,1.68.53h.26c.53,0,.97-.09,1.41-.26,1.5-.62,2.38-1.76,2.65-3.62v-6.44h0l-.09-.09ZM160.46,285.62c0-.26,0-.53.18-.79.09-.26.26-.44.44-.62s.35-.35.62-.44c.26-.09.44-.18.71-.18s.53,0,.79.18c.26.09.44.26.62.44s.35.35.44.62.18.53.18.79,0,.53-.18.79c-.09.26-.26.44-.44.62s-.35.35-.62.44-.53.18-.79.18-.53,0-.71-.18-.44-.26-.62-.44-.35-.35-.44-.62-.18-.53-.18-.79ZM165.14,285.62c0-.26,0-.53.18-.79.09-.26.26-.44.44-.62s.35-.35.62-.44c.26-.09.53-.18.79-.18s.53,0,.71.18c.26.09.44.26.62.44s.35.35.44.62.18.53.18.79,0,.53-.18.79-.26.44-.44.62-.35.35-.62.44-.44.18-.71.18-.53,0-.79-.18-.44-.26-.62-.44-.35-.35-.44-.62-.18-.53-.18-.79Z"/>
      <path class="cls-3" d="M174.23,307.86v-3.09h1.5c.97,0,1.76-.26,2.29-.88.71-.71.97-1.68.97-3v-7.68h3.88v8.03c0,1.06.35,1.94.97,2.56.62.62,1.32.88,2.29.88h1.59v3.09h-1.59c-2.21,0-3.88-.71-5.21-1.94-1.32,1.32-3.09,1.94-5.29,1.94h-1.5l.09.09ZM176.35,312.45c0-.26,0-.53.18-.79.09-.26.26-.44.44-.62s.35-.35.62-.44.44-.18.71-.18.53,0,.79.18c.26.09.44.26.62.44s.35.35.44.62.18.53.18.79,0,.53-.18.79c-.09.26-.26.44-.44.62s-.35.35-.62.44-.53.18-.79.18-.53,0-.71-.18c-.26-.09-.44-.26-.62-.44s-.35-.35-.44-.62-.18-.53-.18-.79ZM181.03,312.45c0-.26,0-.53.18-.79.09-.26.26-.44.44-.62s.35-.35.62-.44.53-.18.79-.18.53,0,.71.18c.26.09.44.26.62.44s.26.35.44.62c.09.26.18.53.18.79s0,.53-.18.79c-.09.26-.26.44-.44.62s-.35.35-.62.44-.44.18-.71.18-.53,0-.79-.18c-.26-.09-.44-.26-.62-.44s-.35-.35-.44-.62-.18-.53-.18-.79Z"/>
      <path class="cls-3" d="M198.15,293.21v8.65c0,1.59-.62,2.91-1.76,4.06-1.24,1.24-2.82,1.85-4.59,1.85h-6v-3.09h6c.62,0,1.15-.26,1.59-.71.62-.53.88-1.32.88-2.21v-8.65h3.88v.09ZM190.11,312.54c0-.26,0-.53.18-.79.09-.26.26-.44.44-.62s.35-.35.62-.44.44-.18.71-.18.53,0,.71.18c.26.09.44.26.62.44s.35.35.44.62.18.53.18.79,0,.53-.18.79c-.09.26-.26.44-.44.62s-.35.35-.62.44-.44.18-.71.18-.53,0-.71-.18c-.26-.09-.44-.26-.62-.44s-.35-.35-.44-.62-.18-.53-.18-.79Z"/>
      <path class="cls-3" d="M204.85,286.42v15.44c0,.88.26,1.59.88,2.21.44.44,1.06.71,1.59.71h4.24v3.09h-4.24c-1.85,0-3.35-.62-4.59-1.85-1.15-1.15-1.76-2.47-1.76-4.06v-15.44h3.88v-.09Z"/>
      <path class="cls-3" d="M209.97,307.86v-3.09h1.5c.97,0,1.76-.26,2.29-.88.71-.71.97-1.68.97-3v-7.68h3.88v8.03c0,1.06.35,1.94.97,2.56s1.32.88,2.29.88h1.59v3.09h-1.59c-2.21,0-3.88-.71-5.21-1.94-1.32,1.32-3,1.94-5.29,1.94h-1.5l.09.09ZM214.82,312.54c0-.26,0-.53.18-.79.09-.26.26-.44.44-.62s.35-.35.62-.44c.26-.09.44-.18.71-.18s.53,0,.71.18.44.26.62.44.35.35.44.62.18.53.18.79,0,.53-.18.79c-.09.26-.26.44-.44.62s-.35.35-.62.44c-.26.09-.53.18-.71.18s-.53,0-.71-.18c-.26-.09-.44-.26-.62-.44s-.35-.35-.44-.62-.18-.53-.18-.79Z"/>
      <path class="cls-3" d="M239.53,300.89c0,1.24.35,2.29.97,3,.62.62,1.32.88,2.29.88s1.76-.26,2.29-.88c.71-.71.97-1.68.97-3v-7.68h3.88v7.68c0,1.94-.62,3.62-1.85,4.85-1.32,1.41-3.18,2.12-5.38,2.12s-3.88-.71-5.21-1.94c-1.32,1.32-3.09,1.94-5.29,1.94s-3.88-.71-5.21-1.94c-1.32,1.32-3.18,1.94-5.65,1.94v-3.09c1.24,0,2.12-.26,2.74-.88.71-.71.97-1.68.97-3v-7.68h3.88v7.68c0,1.24.35,2.29.97,3,.62.62,1.32.88,2.29.88s1.76-.26,2.29-.88c.71-.71,1.06-1.68,1.06-3v-7.68h3.88v7.68h.09ZM232.56,288.62c0-.26,0-.53.18-.79.09-.26.26-.44.44-.62s.35-.35.62-.44c.26-.09.44-.18.71-.18s.53,0,.71.18c.26.09.44.26.62.44s.35.35.44.62.18.53.18.79,0,.53-.18.79-.26.44-.44.62-.35.35-.62.44-.53.18-.71.18-.53,0-.71-.18c-.26-.09-.44-.26-.62-.44s-.35-.35-.44-.62-.18-.53-.18-.79ZM235.47,284.04c0-.26,0-.53.18-.79.09-.26.26-.44.44-.62s.35-.35.62-.44c.26-.09.44-.18.71-.18s.53,0,.71.18c.26.09.44.26.62.44s.35.35.44.62.18.53.18.79,0,.53-.18.79c-.09.26-.26.44-.44.62s-.35.35-.62.44-.53.18-.71.18-.53,0-.71-.18c-.26-.09-.44-.26-.62-.44s-.35-.35-.44-.62-.18-.53-.18-.79ZM238.39,288.62c0-.26,0-.53.18-.79.09-.26.26-.44.44-.62s.35-.35.62-.44.53-.18.79-.18.53,0,.71.18c.26.09.44.26.62.44s.26.35.44.62c.09.26.18.53.18.79s0,.53-.18.79c-.09.26-.26.44-.44.62s-.35.35-.62.44-.44.18-.71.18-.53,0-.79-.18-.44-.26-.62-.44-.35-.35-.44-.62-.18-.53-.18-.79Z"/>
      <path class="cls-3" d="M281.8,307.86c-2.47,0-4.32-.71-5.65-2.12l-.18-.18c-.62.62-1.5,1.24-2.65,1.68-.97.35-2.03.62-3.18.62s-.35,0-.62,0c-1.32,0-2.56-.44-3.62-1.15-2.65-1.59-4.06-4.06-4.06-7.68s.71-4.85,2.21-6.44c1.68-1.68,3.88-2.56,6.71-2.56h0c1.59,0,3.09.26,4.32.88,1.85.79,2.82,1.94,2.82,3.53v6.53c0,1.24.35,2.29.97,3,.62.62,1.5.88,2.65.88v3.09h0l.26-.09ZM274.3,294.36c0-.35-.26-.62-.79-.88-.71-.35-1.59-.44-2.47-.44h0c-1.59,0-2.74.44-3.62,1.41-.97,1.06-1.5,2.56-1.5,4.59s.79,4.24,2.47,5.21c.53.26,1.06.44,1.68.53h.26c.53,0,.97-.09,1.41-.26,1.5-.62,2.38-1.76,2.65-3.62v-6.44h0l-.09-.09ZM266.1,285.62c0-.26,0-.53.18-.79.09-.26.26-.44.44-.62s.35-.35.62-.44.44-.18.71-.18.53,0,.79.18c.26.09.44.26.62.44s.35.35.44.62.18.53.18.79,0,.53-.18.79c-.09.26-.26.44-.44.62s-.35.35-.62.44-.53.18-.79.18-.53,0-.71-.18-.44-.26-.62-.44-.35-.35-.44-.62-.18-.53-.18-.79ZM270.77,285.62c0-.26,0-.53.18-.79.09-.26.26-.44.44-.62s.35-.35.62-.44.53-.18.79-.18.53,0,.71.18c.26.09.44.26.62.44s.35.35.44.62.18.53.18.79,0,.53-.18.79-.26.44-.44.62-.35.35-.62.44-.44.18-.71.18-.53,0-.79-.18c-.26-.09-.44-.26-.62-.44s-.35-.35-.44-.62-.18-.53-.18-.79Z"/>
      <path class="cls-3" d="M292.22,293.21v8.65c0,1.59-.53,2.91-1.68,4.06s-2.82,1.85-4.59,1.85h-6v-3.09h6c.62,0,1.15-.26,1.59-.71.62-.53.88-1.32.88-2.21v-8.65h3.88l-.09.09ZM281.98,312.45c0-.26,0-.53.18-.79.09-.26.26-.44.44-.62s.35-.35.62-.44.44-.18.71-.18.53,0,.79.18c.26.09.44.26.62.44s.35.35.44.62.18.53.18.79,0,.53-.18.79c-.09.26-.26.44-.44.62s-.35.35-.62.44-.53.18-.79.18-.53,0-.71-.18c-.26-.09-.44-.26-.62-.44s-.35-.35-.44-.62-.18-.53-.18-.79ZM286.57,312.45c0-.26,0-.53.18-.79.09-.26.26-.44.44-.62s.35-.35.62-.44.53-.18.79-.18.53,0,.71.18c.26.09.44.26.62.44s.35.35.44.62.18.53.18.79,0,.53-.18.79c-.09.26-.26.44-.44.62s-.35.35-.62.44-.44.18-.71.18-.53,0-.79-.18c-.26-.09-.44-.26-.62-.44s-.35-.35-.44-.62-.18-.53-.18-.79Z"/>
      <path class="cls-3" d="M311.01,307.86c-.18,1.06-.62,2.12-1.32,3.18-.35.71-.88,1.5-1.59,2.21-.62.71-1.41,1.5-2.29,2.38l-2.65-1.85c.97-.88,1.68-1.59,2.21-2.21s.88-1.24,1.24-1.68c.35-.79.62-1.41.71-1.94h-3.18c-2.74,0-4.94-.88-6.62-2.65-1.59-1.59-2.29-3.62-2.29-6.18s.71-4.85,2.21-6.44c1.68-1.68,3.88-2.56,6.71-2.56h0c1.59,0,3.09.26,4.32.88,1.85.79,2.82,1.94,2.82,3.53v10.33h3.18v3.09h-3.53l.09-.09ZM307.48,294.36c0-.35-.26-.62-.79-.88-.71-.35-1.59-.44-2.47-.44h0c-1.59,0-2.74.44-3.62,1.41-.97,1.06-1.5,2.56-1.5,4.59s.53,3.27,1.5,4.32c.97.97,2.29,1.41,3.97,1.41h3v-10.41h-.09Z"/>
      <path class="cls-3" d="M325.58,307.86c-2.74,0-4.94-.79-6.53-2.56l-.44.44c-1.32,1.41-3.27,2.12-5.74,2.12v-3.09c1.24,0,2.12-.26,2.65-.88.71-.71.97-1.68.97-3v-1.85c0-2.74.71-4.85,2.21-6.44,1.68-1.76,3.88-2.65,6.71-2.65s5.12.88,6.8,2.56c1.5,1.59,2.21,3.71,2.21,6.44s-.62,4.5-1.85,5.74h3.79v3.09h-10.94l.18.09ZM329.19,294.45c-.88-.88-2.12-1.41-3.71-1.41s-2.74.44-3.62,1.41c-.97,1.06-1.5,2.56-1.5,4.59s.53,3.27,1.5,4.32c.97.97,2.12,1.41,3.62,1.41s2.74-.44,3.62-1.41c.97-1.06,1.5-2.47,1.5-4.32s-.53-3.53-1.5-4.59h.09Z"/>
      <path class="cls-3" d="M334.84,307.86v-3.09h1.5c.97,0,1.76-.26,2.29-.88.71-.71.97-1.68.97-3v-7.68h3.88v8.03c0,1.06.35,1.94.97,2.56.62.62,1.32.88,2.29.88h1.59v3.09h-1.59c-2.21,0-3.88-.71-5.21-1.94-1.32,1.32-3,1.94-5.29,1.94h-1.5l.09.09ZM339.43,289.07c0-.26,0-.53.18-.79s.26-.44.44-.62.35-.35.62-.44.44-.18.71-.18.53,0,.79.18c.26.09.44.26.62.44s.35.35.44.62.18.53.18.79,0,.53-.18.79c-.09.26-.26.44-.44.62s-.35.35-.62.44-.53.18-.79.18-.53,0-.71-.18-.44-.26-.62-.44-.35-.35-.44-.62-.18-.53-.18-.79Z"/>
      <path class="cls-3" d="M358.76,293.21v8.65c0,1.59-.53,2.91-1.68,4.06s-2.82,1.85-4.59,1.85h-6v-3.09h6c.62,0,1.15-.26,1.59-.71.62-.53.88-1.32.88-2.21v-8.65h3.88l-.09.09ZM349.31,288.54c0-.26,0-.53.18-.79.09-.26.26-.44.44-.62s.35-.35.62-.44.44-.18.71-.18.53,0,.79.18c.26.09.44.26.62.44s.35.35.44.62.18.53.18.79,0,.53-.18.79c-.09.26-.26.44-.44.62s-.35.35-.62.44-.53.18-.79.18-.53,0-.71-.18-.44-.26-.62-.44-.35-.35-.44-.62-.18-.53-.18-.79ZM353.99,288.54c0-.26,0-.53.18-.79.09-.26.26-.44.44-.62s.35-.35.62-.44.53-.18.79-.18.53,0,.71.18c.26.09.44.26.62.44s.35.35.44.62.18.53.18.79,0,.53-.18.79c-.09.26-.26.44-.44.62s-.35.35-.62.44-.44.18-.71.18-.53,0-.79-.18c-.26-.09-.44-.26-.62-.44s-.35-.35-.44-.62-.18-.53-.18-.79Z"/>
      <path class="cls-3" d="M387.26,298.24c0-2.91-.44-4.85-1.06-5.82l3.18-1.85c.44.79.71,1.41.88,2.03,1.06-1.59,3.09-2.47,6.09-2.47h9.97c2.82,0,5.12.88,6.71,2.65,1.5,1.59,2.21,3.71,2.21,6.44s-.79,4.59-2.29,6.18c-1.68,1.76-3.88,2.65-6.62,2.65h-15.88c-.44,1.06-1.06,2.12-1.94,3-1.94,2.03-4.59,3-7.77,3s-5.21-1.06-7.15-3.09c-1.76-1.85-2.74-4.32-2.74-7.24s0-1.59.18-2.29c.09-.71.35-1.59.71-2.47l3.18.79c-.26.79-.44,1.41-.53,2.03s-.18,1.24-.18,1.94c0,2.29.62,4.06,1.85,5.38,1.24,1.24,2.74,1.85,4.68,1.85s3.53-.62,4.77-1.85c1.24-1.32,1.85-3.09,1.85-5.38v-5.29h0l-.09-.18ZM406.23,304.77c1.41,0,2.65-.53,3.62-1.41.97-1.06,1.5-2.47,1.5-4.32s-.44-3.53-1.5-4.59c-.88-.88-2.12-1.41-3.62-1.41h-9.97c-1.59,0-2.74.44-3.62,1.41-.97,1.06-1.5,2.56-1.5,4.59v5.74h15.09Z"/>
      <path class="cls-3" d="M427.59,307.86c-1.41,0-2.47-.26-3.18-.71-.26,1.24-.71,2.56-1.41,3.88-.35.71-.88,1.5-1.59,2.29-.62.71-1.41,1.5-2.29,2.38l-2.65-1.85c.97-.88,1.68-1.59,2.21-2.21s.88-1.24,1.24-1.76c.62-1.24.97-2.56.97-4.06s0-.53,0-.79v-11.74h3.88v8.12c0,1.06.44,1.85.97,2.47.62.62,1.32.88,2.29.88h1.59v3.09h-2.03Z"/>
      <path class="cls-3" d="M432.18,304.77c-1.24-1.32-1.85-3.18-1.85-5.74s.71-4.85,2.21-6.44c1.68-1.76,3.88-2.65,6.71-2.65s5.12.88,6.8,2.56c1.5,1.59,2.21,3.71,2.21,6.44s-.79,4.59-2.29,6.18c-1.68,1.76-3.97,2.65-6.71,2.65h-11.47v-3.09h4.41v.09ZM442.94,294.45c-.88-.88-2.12-1.41-3.71-1.41s-2.74.44-3.62,1.41c-.97,1.06-1.5,2.56-1.5,4.59s.53,3.27,1.5,4.32c.97.97,2.12,1.41,3.62,1.41s2.74-.44,3.62-1.41c.97-1.06,1.5-2.47,1.5-4.32s-.53-3.53-1.5-4.59h.09ZM437.21,286.77c0-.26,0-.53.18-.79s.26-.44.44-.62.35-.35.62-.44.44-.18.71-.18.53,0,.79.18c.26.09.44.26.62.44s.35.35.44.62.18.53.18.79,0,.53-.18.79c-.09.26-.26.44-.44.62s-.35.35-.62.44-.53.18-.79.18-.53,0-.71-.18-.44-.26-.62-.44-.35-.35-.44-.62-.18-.53-.18-.79Z"/>
    </g>
  </g>
</svg>